<svg xmlns="http://www.w3.org/2000/svg" width="314" height="314" viewBox="0 0 314 314">
  <g id="Trazado_2" data-name="Trazado 2" fill="none">
    <path d="M157,0A157,157,0,1,1,0,157,157,157,0,0,1,157,0Z" stroke="none"/>
    <path d="M 157 20 C 81.45794677734375 20 20 81.45794677734375 20 157 C 20 232.5420532226563 81.45794677734375 294 157 294 C 232.5420532226563 294 294 232.5420532226563 294 157 C 294 81.45794677734375 232.5420532226563 20 157 20 M 157 0 C 243.7087097167969 0 314 70.29129028320313 314 157 C 314 243.7087097167969 243.7087097167969 314 157 314 C 70.29129028320313 314 0 243.7087097167969 0 157 C 0 70.29129028320313 70.29129028320313 0 157 0 Z" stroke="none" fill="#ca8080"/>
  </g>
</svg>
